<?xml version="1.0" encoding="UTF-8" standalone="no"?>
<!-- Created with Inkscape (http://www.inkscape.org/) -->

<svg
   width="32"
   height="32"
   viewBox="0 0 32 32"
   version="1.1"
   id="svg1"
   inkscape:version="1.4 (e7c3feb100, 2024-10-09)"
   sodipodi:docname="logo.svg"
   xmlns:inkscape="http://www.inkscape.org/namespaces/inkscape"
   xmlns:sodipodi="http://sodipodi.sourceforge.net/DTD/sodipodi-0.dtd"
   xmlns="http://www.w3.org/2000/svg"
   xmlns:svg="http://www.w3.org/2000/svg">
  <sodipodi:namedview
     id="namedview1"
     pagecolor="#505050"
     bordercolor="#eeeeee"
     borderopacity="1"
     inkscape:showpageshadow="0"
     inkscape:pageopacity="0"
     inkscape:pagecheckerboard="0"
     inkscape:deskcolor="#505050"
     inkscape:document-units="px"
     inkscape:zoom="22.627417"
     inkscape:cx="9.8332037"
     inkscape:cy="17.478796"
     inkscape:window-width="1920"
     inkscape:window-height="1087"
     inkscape:window-x="0"
     inkscape:window-y="30"
     inkscape:window-maximized="1"
     inkscape:current-layer="layer1" />
  <defs
     id="defs1" />
  <g
     inkscape:label="Camada 1"
     inkscape:groupmode="layer"
     id="layer1">
    <path
       style="fill:#ffffff;fill-opacity:1;stroke:#ffffff;stroke-width:1.35328;stroke-opacity:0"
       d="M 0.51079997,8.3903372 C 2.967391,15.439612 5.6043713,22.441417 6.6117901,29.872053 L 25.00935,30.039443 C 25.884983,22.156598 28.929973,15.410084 31.346812,8.3345407 L 25.562476,14.967127 24.680583,8.9743973 20.266382,14.963518 16.54682,1.1556479 12.729224,14.806953 8.6518243,8.866413 7.1406959,14.338095 Z"
       id="path1"
       sodipodi:nodetypes="cccccccccccc" />
    <path
       style="fill:#000000;fill-opacity:1;stroke:#ebebeb;stroke-width:1.19483;stroke-opacity:0"
       d="m 2.0226369,10.63501 c 2.2206192,6.079267 4.604301,12.117596 5.5149509,18.525745 l 16.6303542,0.144357 c 0.791524,-6.798133 3.544022,-12.6163 5.728707,-18.71822 L 24.667937,16.306807 23.870755,11.138701 19.880566,16.303695 16.518293,4.3958423 13.067403,16.168674 9.3816643,11.045575 8.0156878,15.764331 Z"
       id="path1-5"
       sodipodi:nodetypes="cccccccccccc" />
    <path
       style="fill:#e2e2e2;fill-opacity:1;stroke:#ebebeb;stroke-width:13.9829;stroke-dasharray:none;stroke-dashoffset:0;stroke-opacity:0"
       id="path2-2-7"
       sodipodi:type="arc"
       sodipodi:cx="16.088652"
       sodipodi:cy="26.186775"
       sodipodi:rx="2.1911747"
       sodipodi:ry="2.8093996"
       sodipodi:start="6.0667027"
       sodipodi:end="3.3548538"
       sodipodi:arc-type="slice"
       d="m 18.228682,25.583328 a 2.1911747,2.8093996 0 0 1 -0.908533,2.927156 2.1911747,2.8093996 0 0 1 -2.45715,0.0051 2.1911747,2.8093996 0 0 1 -0.915883,-2.923388 l 2.141536,0.594604 z" />
    <path
       style="fill:#ffffff;fill-opacity:1;stroke:#ebebeb;stroke-width:5.97558;stroke-dasharray:none;stroke-dashoffset:0;stroke-opacity:0"
       d="m 13.927249,22.657643 c 1.618991,0.600776 2.94848,0.405419 4.201582,0 l -0.06916,1.193042 -3.73474,-0.276647 z"
       id="path5"
       sodipodi:nodetypes="ccccc" />
    <path
       style="fill:#ffffff;fill-opacity:1;stroke:#ebebeb;stroke-width:5.97558;stroke-dasharray:none;stroke-dashoffset:0;stroke-opacity:0"
       d="m 14.028642,24.971093 c 1.291061,-0.434646 2.70617,-0.148589 4.041645,0.05187 l -0.08646,-0.821298 c -1.259258,0.05289 -2.512358,0.06576 -3.726094,-0.177227 z"
       id="path5-3"
       sodipodi:nodetypes="ccccc" />
    <path
       style="fill:#ffffff;fill-opacity:1;stroke:#ebebeb;stroke-width:5.97558;stroke-dasharray:none;stroke-dashoffset:0;stroke-opacity:0"
       d="m 16.434366,13.113308 -1.227623,2.368793 1.158461,2.420665 1.193042,-2.368793 z"
       id="path6"
       sodipodi:nodetypes="ccccc" />
    <path
       style="fill:#ffffff;fill-opacity:1;stroke:#ebebeb;stroke-width:5.97558;stroke-dasharray:none;stroke-dashoffset:0;stroke-opacity:0"
       d="m 9.8467003,14.531126 -0.432262,0.829942 0.9855557,0.881814 0.242067,-1.089299 z"
       id="path7" />
    <path
       style="fill:#ffffff;fill-opacity:1;stroke:#ebebeb;stroke-width:5.97558;stroke-dasharray:none;stroke-dashoffset:0;stroke-opacity:0"
       d="m 4.2964613,14.289059 0.224776,1.296785 1.1411705,0.639747 -0.224776,-0.899104 z"
       id="path8" />
    <path
       style="fill:#ffffff;fill-opacity:1;stroke:#ebebeb;stroke-width:5.97558;stroke-dasharray:none;stroke-dashoffset:0;stroke-opacity:0"
       d="m 22.036476,15.240035 0.847232,-0.466843 0.397681,1.002847 -0.933685,0.657038 z"
       id="path9" />
    <path
       style="fill:#ffffff;fill-opacity:1;stroke:#ebebeb;stroke-width:5.97558;stroke-dasharray:none;stroke-dashoffset:0;stroke-opacity:0"
       d="m 27.137162,15.205454 -1.072008,0.899104 0.155614,0.829942 0.674328,-0.587876 z"
       id="path10"
       sodipodi:nodetypes="ccccc" />
    <path
       style="fill:#ffffff;fill-opacity:1;stroke:#ebebeb;stroke-width:5.97558;stroke-dasharray:none;stroke-dashoffset:0;stroke-opacity:0"
       d="m 9.4406753,21.080532 c 0.182488,-2.97552 2.4464197,-3.157039 4.1569087,-1.51605 -2.10961,-0.401199 -3.533892,0.893717 -4.1569087,1.51605 z"
       id="path11"
       sodipodi:nodetypes="ccc" />
    <path
       style="fill:#ffffff;fill-opacity:1;stroke:#ebebeb;stroke-width:5.97558;stroke-dasharray:none;stroke-dashoffset:0;stroke-opacity:0"
       d="m 22.45177,21.04578 c -0.182489,-2.975519 -2.446421,-3.157039 -4.156909,-1.516049 2.109609,-0.401199 3.533891,0.893717 4.156909,1.516049 z"
       id="path11-9"
       sodipodi:nodetypes="ccc" />
    <path
       style="fill:#e0e0e0;fill-opacity:1;stroke:#ebebeb;stroke-width:5.97558;stroke-dasharray:none;stroke-dashoffset:0;stroke-opacity:0"
       d="m 14.947386,21.03234 -3.613707,2.195889 0.05187,2.835636 0.760781,-2.61086 2.78377,-1.677175 z"
       id="path12" />
    <path
       style="fill:#e0e0e0;fill-opacity:1;stroke:#ebebeb;stroke-width:5.97558;stroke-dasharray:none;stroke-dashoffset:0;stroke-opacity:0"
       d="m 17.287072,20.975204 3.613706,2.195889 -0.05186,2.835636 -0.760781,-2.61086 -2.78377,-1.677175 z"
       id="path12-2" />
  </g>
</svg>
